# xmcd
#
# Track frame offsets: 
#        150
#        16626
#        35988
#        56083
#        77461
#        99079
#        114830
#        135688
#        154345
#        174213
#        194824
#        214529
#        237103
#        254038
#        272348
#        291542
#        310348
#        337388
#
# Disc length: 4769 seconds
#
# Revision: 11
# Processed by: cddbd v1.4PL0 Copyright (c) Steve Scherf et al.
# Submitted via: ExactAudioCopy v0.95a3
#
DISCID=04129f12
DTITLE=Various Artist - The Power Of LOVE
DYEAR=2002
DGENRE=Pop
TTITLE0=MARIAH CAREY-Without You
TTITLE1=MICHAEL LEARNS TO ROCK-That's Why (You Go Away)
TTITLE2=RICHARD MARX-Right Here Waiting
TTITLE3=CELINE DION-My Heart Will Go On (Love Theme from "Titanic")
TTITLE4=R KELLY-I Believe I Can Fly (Theme from "Space Jam")
TTITLE5=PHIL COLLINS-Against All Odds (Theme from "Against All Odds")
TTITLE6=ERIC CLAPTION-Tears In Heaven (Theme from "Rush")
TTITLE7=AIR SUPPLY-Goodbye
TTITLE8=ROXETTE-It Must Have Been Love (Theme from "Pretty Woman")
TTITLE9=TONI BRAXTON-Un-Break My Heart
TTITLE10=THE CORRS-What Can I Do?
TTITLE11=LEANN RIMES-How Do I Live
TTITLE12=FAITH HILL-There You'll Be (Love Theme from "Pearl Harbor")
TTITLE13=ROD STEWART-Have I Told You Lately
TTITLE14=SAVAGE GARDEN-I Knew I Loved You
TTITLE15=BOYZ II MEN-I'll Make Love To You
TTITLE16=BRYAN ADAMS-Please Forgive Me
TTITLE17=MADONNA-Take A Bow
EXTD=YEAR: 2002 ID3G: 13 YEAR: 2002 ID3G: 13
EXTT0=
EXTT1=
EXTT2=
EXTT3=
EXTT4=
EXTT5=
EXTT6=
EXTT7=
EXTT8=
EXTT9=
EXTT10=
EXTT11=
EXTT12=
EXTT13=
EXTT14=
EXTT15=
EXTT16=
EXTT17=
PLAYORDER=
